<?xml version="1.0" encoding="UTF-8" standalone="no"?>
<svg
   xmlns:dc="http://purl.org/dc/elements/1.1/"
   xmlns:cc="http://creativecommons.org/ns#"
   xmlns:rdf="http://www.w3.org/1999/02/22-rdf-syntax-ns#"
   xmlns:svg="http://www.w3.org/2000/svg"
   xmlns="http://www.w3.org/2000/svg"
   xmlns:xlink="http://www.w3.org/1999/xlink"
   xmlns:sodipodi="http://sodipodi.sourceforge.net/DTD/sodipodi-0.dtd"
   xmlns:inkscape="http://www.inkscape.org/namespaces/inkscape"
   id="Layer_1"
   data-name="Layer 1"
   viewBox="0 0 635.27 577.17"
   version="1.1"
   sodipodi:docname="BitcoinCash.svg"
   inkscape:version="0.92.1 r15371">
  <metadata
     id="metadata20">
    <rdf:RDF>
      <cc:Work
         rdf:about="">
        <dc:format>image/svg+xml</dc:format>
        <dc:type
           rdf:resource="http://purl.org/dc/dcmitype/StillImage" />
        <dc:title>bch redesign</dc:title>
      </cc:Work>
    </rdf:RDF>
  </metadata>
  <sodipodi:namedview
     pagecolor="#ffffff"
     bordercolor="#666666"
     borderopacity="1"
     objecttolerance="10"
     gridtolerance="10"
     guidetolerance="10"
     inkscape:pageopacity="0"
     inkscape:pageshadow="2"
     inkscape:window-width="1502"
     inkscape:window-height="1574"
     id="namedview18"
     showgrid="false"
     inkscape:zoom="0.40889167"
     inkscape:cx="708.93669"
     inkscape:cy="582.06125"
     inkscape:window-x="1151"
     inkscape:window-y="9"
     inkscape:window-maximized="0"
     inkscape:current-layer="Layer_1" />
  <defs
     id="defs11">
    <style
       id="style2">.cls-1{fill:url(#Foliage_2);}</style>
    <linearGradient
       id="Foliage_2"
       x1="5.96"
       y1="288.58"
       x2="628.34"
       y2="288.58"
       gradientUnits="userSpaceOnUse">
      <stop
         offset="0"
         stop-color="#54ae6f"
         id="stop4" />
      <stop
         offset="0.49"
         stop-color="#00aa4f"
         id="stop6" />
      <stop
         offset="1"
         stop-color="#007736"
         id="stop8" />
    </linearGradient>
    <clipPath
       clipPathUnits="userSpaceOnUse"
       id="clipPath4564">
      <use
         x="0"
         y="0"
         xlink:href="#g4560"
         id="use4566"
         width="100%"
         height="100%" />
    </clipPath>
    <clipPath
       clipPathUnits="userSpaceOnUse"
       id="clipPath4575">
      <use
         x="0"
         y="0"
         xlink:href="#g4571"
         id="use4577"
         width="100%"
         height="100%" />
    </clipPath>
    <clipPath
       clipPathUnits="userSpaceOnUse"
       id="clipPath4621">
      <use
         x="0"
         y="0"
         xlink:href="#g4617"
         id="use4623"
         width="100%"
         height="100%" />
    </clipPath>
  </defs>
  <title
     id="title13">bch redesign</title>
  <path
     style="fill:none;stroke:#000000;stroke-opacity:0.42307693;stroke-width:25;stroke-miterlimit:4;stroke-dasharray:none"
     d="M 562.08,292.57 C 560.08,426.7 450.17,536.33 313.2,534.5 178.51,532.69 68.64,421 71.49,283.2 74.25,149.87 183.73,42.13 316.91,42.65 450.73,42 564.22,152.32 562.12,292.56 Z"
     id="path4523" />
  <g
     id="g4562"
     clip-path="url(#clipPath4564)">
    <g
       inkscape:label="Clip"
       id="g4560">
      <g
         id="g4573"
         clip-path="url(#clipPath4575)">
        <g
           inkscape:label="Clip"
           id="g4571">
          <path
             style="fill:#e6e6e6"
             d="M 307.01367 129.70703 C 306.62695 129.71016 306.17562 129.78719 305.64062 129.92969 C 298.41062 131.92969 291.13914 133.71977 283.86914 135.50977 C 282.17914 135.92977 281.68086 136.67086 282.13086 138.38086 C 283.30086 142.83086 284.30094 147.37906 285.46094 151.78906 C 287.52094 159.78906 289.76031 167.64906 291.07031 175.78906 C 291.30031 177.15906 292.06992 178.78969 289.66992 179.42969 C 284.13992 180.77969 278.67039 182.24023 273.15039 183.74023 C 271.44039 184.20023 270.90914 183.43922 270.61914 181.94922 C 270.13914 179.46922 269.6207 177.01078 268.9707 174.55078 C 266.4107 164.21745 263.81922 153.88411 261.19922 143.55078 C 260.94922 142.55078 261.04031 141.14016 259.07031 141.66016 C 251.29698 143.72683 243.50589 145.70937 235.69922 147.60938 C 233.78922 148.06938 233.62008 148.88992 234.08008 150.66992 C 237.43008 163.59992 240.62094 176.57953 243.96094 189.51953 C 244.48094 191.51953 244.21906 192.38008 242.03906 192.83008 C 237.16906 193.83008 232.35906 195.05977 227.53906 196.25977 C 215.97239 199.13977 204.41271 202.05023 192.85938 204.99023 C 191.79937 205.26023 190.17953 205.1 190.76953 207.25 C 193.00953 215.34 195.2207 223.43984 197.2207 231.58984 C 197.8907 234.31984 198.99906 234.72969 201.53906 233.92969 C 207.21906 232.13969 212.81 230.04016 218.75 229.16016 C 228.65 227.70016 233.84937 231.00992 236.35938 240.66992 C 238.63938 249.40992 240.68969 258.19922 242.92969 266.94922 C 249.13969 291.25922 254.60961 315.76922 261.34961 339.94922 C 262.96961 345.77922 264.81922 351.53961 265.44922 357.59961 C 266.04922 363.35961 264.34016 366.43016 259.16016 368.91016 C 257.00893 369.85467 254.7476 370.52655 252.42969 370.91016 C 248.42969 371.69016 244.34969 371.91 240.42969 373.25 C 239.01969 373.74 238.16031 374.39016 238.32031 376.16016 C 239.19364 385.78016 239.99094 395.41078 240.71094 405.05078 C 240.89094 407.47078 241.80922 407.71078 243.94922 407.05078 C 260.06922 402.28078 276.47938 398.6607 292.85938 394.9707 C 294.50937 394.6007 295.15047 394.97078 295.48047 396.55078 C 296.13047 399.64078 296.92039 402.6993 297.65039 405.7793 C 300.11039 416.1393 302.53039 426.5207 305.65039 436.7207 C 305.95039 437.7207 305.99039 439.05023 307.65039 438.49023 C 315.29039 435.90023 323.31078 434.9007 331.05078 432.7207 C 332.46078 432.3207 332.94906 431.82953 332.53906 430.26953 C 331.17906 425.02953 330.01922 419.74023 328.69922 414.49023 C 326.69922 406.49023 324.46961 398.61078 322.84961 390.55078 C 322.59961 389.35078 321.98977 388.11039 324.00977 387.65039 C 328.32977 386.65039 332.58062 385.42094 336.89062 384.46094 C 343.19063 383.07094 343.21055 383.14031 344.81055 389.32031 C 347.86055 401.12031 350.92039 412.92023 353.90039 424.74023 C 354.30039 426.32023 354.84 426.74008 356.5 426.33008 C 363.78 424.56008 371.09055 422.95016 378.31055 420.91016 C 381.03055 420.13016 381.54906 419.16992 380.78906 416.41992 C 377.39906 404.14992 373.91086 391.89936 371.63086 379.35938 C 370.96086 375.67937 370.92023 375.69016 374.49023 374.41016 C 382.65023 371.48016 390.79039 368.49078 398.65039 364.80078 C 409.65039 359.65078 419.90914 353.47936 427.11914 343.35938 C 438.99914 326.75937 440.63 308.56039 435 289.40039 C 431.76 278.32039 426.62953 268.40016 416.76953 261.66016 C 408.19953 255.80016 398.41078 253.93062 388.30078 253.14062 C 387.40078 253.07063 386.03969 253.5707 385.67969 252.4707 C 385.39969 251.6307 386.61047 251.0507 387.23047 250.4707 C 395.33109 242.59389 399.98012 231.82672 400.16016 220.5293 C 399.91493 212.96518 398.09978 205.53627 394.83008 198.71094 C 387.83008 183.50094 376.36906 174.35086 359.53906 172.13086 C 347.77906 170.57086 336.10016 171.61922 324.41016 172.69922 C 319.87016 173.11922 319.88094 173.13922 318.71094 168.69922 C 315.46094 156.48922 312.7107 144.13023 309.2207 131.99023 C 308.7482 130.36273 308.17383 129.69766 307.01367 129.70703 z M 321.95508 207.83789 C 328.08992 207.91746 333.9643 208.99023 339.31055 212.49023 C 352.07055 220.76023 353.98936 237.16945 343.35938 247.93945 L 343.39062 247.93945 C 335.70063 255.73945 325.99961 260.00063 315.84961 263.64062 C 309.28872 265.93696 302.5677 267.74536 295.74023 269.05078 C 294.02023 269.39078 293.33086 268.95055 292.88086 267.31055 C 288.37419 251.08388 284.24047 234.75055 280.48047 218.31055 C 280.23047 217.20055 279.99906 216.19977 281.53906 215.75977 C 293.93906 212.19977 306.31055 208.35938 319.31055 207.85938 C 320.1968 207.83437 321.07867 207.82652 321.95508 207.83789 z M 353.38672 286.80273 C 356.36386 286.81671 359.33443 287.16377 362.24023 287.83984 L 362.26953 287.83984 C 381.83953 292.36984 389.18094 312.34023 377.21094 328.49023 C 371.89094 335.69023 364.30039 339.64961 356.40039 343.09961 C 344.58039 348.26961 331.99008 350.77945 319.58008 353.93945 C 314.64008 355.19945 314.62906 355.17961 313.28906 350.09961 C 308.76906 332.91961 305.39078 315.48047 300.05078 298.48047 C 299.58078 297.01047 300.15992 296.59023 301.41992 296.24023 C 315.50992 292.39023 329.55969 288.29039 344.17969 286.90039 C 346.23969 286.73039 348.33016 286.90039 350.41016 286.90039 C 351.40219 286.83082 352.39434 286.79808 353.38672 286.80273 z "
             id="path4521" />
          <g
             id="g4619"
             clip-path="url(#clipPath4621)">
            <g
               inkscape:label="Clip"
               id="g4617" />
          </g>
        </g>
      </g>
    </g>
  </g>
  <path
     inkscape:connector-curvature="0"
     style="fill:none;stroke:#e9e9e9;stroke-width:25;stroke-miterlimit:4;stroke-dasharray:none;stroke-opacity:1"
     d="m 562.08,292.56999 c -2,134.13 -111.91,243.76 -248.88,241.93 -134.69,-1.81 -244.559998,-113.5 -241.71,-251.3 2.76,-133.33 112.24,-241.069994 245.42,-240.549994 133.82,-0.65 247.31,109.669994 245.21,249.909994 z"
     id="path4523-0" />
</svg>
