<?xml version="1.0" encoding="UTF-8" standalone="no"?>
<svg
   xmlns:dc="http://purl.org/dc/elements/1.1/"
   xmlns:cc="http://creativecommons.org/ns#"
   xmlns:rdf="http://www.w3.org/1999/02/22-rdf-syntax-ns#"
   xmlns:svg="http://www.w3.org/2000/svg"
   xmlns="http://www.w3.org/2000/svg"
   xmlns:sodipodi="http://sodipodi.sourceforge.net/DTD/sodipodi-0.dtd"
   xmlns:inkscape="http://www.inkscape.org/namespaces/inkscape"
   version="1.1"
   width="24"
   height="24"
   viewBox="0 0 24 24"
   id="svg4"
   sodipodi:docname="bitcoin.svg"
   inkscape:export-filename="C:\Users\torum\Desktop\path2.png"
   inkscape:export-xdpi="2000"
   inkscape:export-ydpi="2000"
   inkscape:version="0.92.1 r15371">
  <metadata
     id="metadata10">
    <rdf:RDF>
      <cc:Work
         rdf:about="">
        <dc:format>image/svg+xml</dc:format>
        <dc:type
           rdf:resource="http://purl.org/dc/dcmitype/StillImage" />
        <dc:title></dc:title>
      </cc:Work>
    </rdf:RDF>
  </metadata>
  <defs
     id="defs8" />
  <sodipodi:namedview
     pagecolor="#ffffff"
     bordercolor="#666666"
     borderopacity="1"
     objecttolerance="10"
     gridtolerance="10"
     guidetolerance="10"
     inkscape:pageopacity="0"
     inkscape:pageshadow="2"
     inkscape:window-width="1274"
     inkscape:window-height="933"
     id="namedview6"
     showgrid="false"
     inkscape:zoom="9.8333333"
     inkscape:cx="12"
     inkscape:cy="12"
     inkscape:window-x="2213"
     inkscape:window-y="386"
     inkscape:window-maximized="0"
     inkscape:current-layer="svg4" />
  <path
     d="M4.5,5H8V2H10V5H11.5V2H13.5V5C19,5 19,11 16,11.25C20,11 21,19 13.5,19V22H11.5V19H10V22H8V19H4.5L5,17H6A1,1 0 0,0 7,16V8A1,1 0 0,0 6,7H4.5V5M10,7V11C10,11 14.5,11.25 14.5,9C14.5,6.75 10,7 10,7M10,12.5V17C10,17 15.5,17 15.5,14.75C15.5,12.5 10,12.5 10,12.5Z"
     id="path2"
     style="fill:#bbcbf0;fill-opacity:1" />
</svg>
