<?xml version="1.0" encoding="UTF-8" standalone="no"?>
<!-- Created with Inkscape (http://www.inkscape.org/) -->

<svg
   xmlns:osb="http://www.openswatchbook.org/uri/2009/osb"
   xmlns:dc="http://purl.org/dc/elements/1.1/"
   xmlns:cc="http://creativecommons.org/ns#"
   xmlns:rdf="http://www.w3.org/1999/02/22-rdf-syntax-ns#"
   xmlns:svg="http://www.w3.org/2000/svg"
   xmlns="http://www.w3.org/2000/svg"
   xmlns:sodipodi="http://sodipodi.sourceforge.net/DTD/sodipodi-0.dtd"
   xmlns:inkscape="http://www.inkscape.org/namespaces/inkscape"
   width="250mm"
   height="250mm"
   viewBox="0 0 250 250"
   version="1.1"
   id="svg8"
   inkscape:version="0.92.1 r15371"
   sodipodi:docname="New_Bitcoin_AppIcon2.svg"
   inkscape:export-filename="C:\Users\torum\Desktop\path44972.png"
   inkscape:export-xdpi="50.799999"
   inkscape:export-ydpi="50.799999">
  <defs
     id="defs2">
    <linearGradient
       id="linearGradient4491"
       osb:paint="solid">
      <stop
         style="stop-color:#c7c7c7;stop-opacity:1;"
         offset="0"
         id="stop4489" />
    </linearGradient>
  </defs>
  <sodipodi:namedview
     id="base"
     pagecolor="#ffffff"
     bordercolor="#666666"
     borderopacity="1.0"
     inkscape:pageopacity="0.0"
     inkscape:pageshadow="2"
     inkscape:zoom="0.35"
     inkscape:cx="-331.50571"
     inkscape:cy="674.28571"
     inkscape:document-units="mm"
     inkscape:current-layer="layer1"
     showgrid="false"
     inkscape:window-width="1756"
     inkscape:window-height="1410"
     inkscape:window-x="1388"
     inkscape:window-y="214"
     inkscape:window-maximized="0" />
  <metadata
     id="metadata5">
    <rdf:RDF>
      <cc:Work
         rdf:about="">
        <dc:format>image/svg+xml</dc:format>
        <dc:type
           rdf:resource="http://purl.org/dc/dcmitype/StillImage" />
        <dc:title></dc:title>
      </cc:Work>
    </rdf:RDF>
  </metadata>
  <g
     inkscape:label="Layer 1"
     inkscape:groupmode="layer"
     id="layer1"
     transform="translate(0,-47)">
    <circle
       style="opacity:1;fill:#000000;fill-opacity:0.72115386;stroke:#ffffff;stroke-width:21.083;stroke-miterlimit:4;stroke-dasharray:none;stroke-opacity:1"
       id="path4487"
       cx="120.45492"
       cy="171.59991"
       r="81.016449"
       inkscape:export-filename="C:\Users\torum\Desktop\path4487.png"
       inkscape:export-xdpi="50.799999"
       inkscape:export-ydpi="50.799999" />
    <path
       style="opacity:1;fill:#44e9b0;fill-opacity:0.88038278;stroke:#ffffff;stroke-width:15.83350468;stroke-miterlimit:4;stroke-dasharray:none;stroke-opacity:1"
       id="path4497"
       d="m 79.051668,194.31018 c 4.456235,1.39612 8.742341,3.35474 13.00918,5.29288 3.148318,1.62915 6.623777,2.98293 9.056052,5.76966 0.92077,1.23636 0.96251,2.7717 0.97619,4.27822 -0.0149,1.2333 -0.0585,2.46588 -0.0853,3.69893 -0.0478,3.03621 1.41749,2.53817 -6.085384,3.722 -0.662506,0.10453 0.599944,-1.27371 0.87525,-1.92282 1.312388,-3.09431 2.573637,-6.21293 3.884294,-9.30808 9.69466,-20.73962 22.01928,-40.11496 36.43312,-57.48723 3.58291,-4.31832 7.43526,-8.37528 11.15289,-12.56291 9.82933,-10.39593 20.42007,-19.95809 31.94012,-28.17594 6.11057,-4.35901 14.82319,-9.55234 21.08479,-13.048617 2.11048,-1.178425 4.31537,-2.154969 6.47306,-3.232454 4.14844,-2.000733 8.45245,-3.561429 12.79087,-5.010364 0,0 -5.24529,4.311034 -5.24529,4.311034 v 0 c -4.13943,1.318303 -8.24255,2.756887 -12.19634,4.632133 -2.06964,1.01739 -4.13938,2.034582 -6.20895,3.052169 -0.99161,0.487568 -2.02651,0.88608 -2.97458,1.463294 -15.34184,9.340555 -29.2307,21.063935 -41.77796,34.283775 -3.70905,4.17248 -7.55921,8.20815 -11.12717,12.51745 -12.1792,14.70973 -22.7978,30.99226 -31.17066,48.45787 -1.26627,2.64141 -2.36918,5.3678 -3.55378,8.05169 -2.06449,5.5146 -1.68872,4.34306 -3.24645,8.99003 -0.21097,0.62936 -0.11226,1.49568 -0.61674,1.89413 -2.05665,1.62445 -4.43707,2.73549 -6.744271,3.91998 -0.314588,0.16152 0.306093,-1.57399 -0.04998,-1.11294 0.0077,-1.23048 0.03736,-2.46018 0.08569,-3.68962 0.02166,-1.31992 0.08146,-2.69465 -0.676718,-3.81884 -2.245017,-2.75507 -5.575962,-4.13474 -8.576156,-5.71631 -4.310504,-1.96393 -8.686233,-3.93684 -13.305112,-4.91348 0,0 5.879294,-4.33564 5.879294,-4.33564 z"
       inkscape:connector-curvature="0" />
  </g>
</svg>
