<?xml version="1.0" encoding="UTF-8" standalone="no"?>
<!-- Created with Inkscape (http://www.inkscape.org/) -->

<svg
   xmlns:dc="http://purl.org/dc/elements/1.1/"
   xmlns:cc="http://creativecommons.org/ns#"
   xmlns:rdf="http://www.w3.org/1999/02/22-rdf-syntax-ns#"
   xmlns:svg="http://www.w3.org/2000/svg"
   xmlns="http://www.w3.org/2000/svg"
   xmlns:sodipodi="http://sodipodi.sourceforge.net/DTD/sodipodi-0.dtd"
   xmlns:inkscape="http://www.inkscape.org/namespaces/inkscape"
   version="1.1"
   id="svg4485"
   width="1333.3333"
   height="1333.3333"
   viewBox="0 0 1333.3333 1333.3333"
   sodipodi:docname="icon-XLM.svg"
   inkscape:version="0.92.1 r15371">
  <metadata
     id="metadata4491">
    <rdf:RDF>
      <cc:Work
         rdf:about="">
        <dc:format>image/svg+xml</dc:format>
        <dc:type
           rdf:resource="http://purl.org/dc/dcmitype/StillImage" />
        <dc:title></dc:title>
      </cc:Work>
    </rdf:RDF>
  </metadata>
  <defs
     id="defs4489" />
  <sodipodi:namedview
     pagecolor="#ffffff"
     bordercolor="#666666"
     borderopacity="1"
     objecttolerance="10"
     gridtolerance="10"
     guidetolerance="10"
     inkscape:pageopacity="0"
     inkscape:pageshadow="2"
     inkscape:window-width="2200"
     inkscape:window-height="1441"
     id="namedview4487"
     showgrid="false"
     inkscape:zoom="0.73125004"
     inkscape:cx="666.66663"
     inkscape:cy="666.66663"
     inkscape:window-x="1148"
     inkscape:window-y="378"
     inkscape:window-maximized="0"
     inkscape:current-layer="svg4485" />
  <path
     style="fill:#e9e9e9;stroke-width:1.33333325;fill-opacity:0.9137255"
     d="m 622.70085,1185.1493 c -69.48913,-5.747 -132.42304,-22.8698 -192.66666,-52.42 -18.39792,-9.0244 -47.48304,-25.6683 -61.96137,-35.4574 l -5.96135,-4.0305 48.62801,-23.8848 48.62803,-23.8847 7.33333,3.6814 c 46.15824,23.1716 100.15086,38.5378 154.47461,43.9634 17.77676,1.7754 63.9407,1.7754 81.71746,0 61.74208,-6.1665 118.63445,-23.8452 170.92002,-53.1118 126.24427,-70.6646 208.90157,-197.2483 222.29457,-340.42783 1.6098,-17.20966 1.3153,-84.13718 -0.3777,-85.83014 -0.4845,-0.4845 -238.8057,118.28576 -529.60272,263.93393 C 275.33005,1023.329 36.790076,1142.4957 36.038246,1142.4957 c -0.91725,0 -1.25244,-18.0734 -1.01885,-54.9364 l 0.34813,-54.9365 L 668.03418,714.23581 C 1016.0008,539.12295 1301.1508,395.84435 1301.7008,395.83893 c 0.55,-0.005 1,25.3797 1,56.41144 v 56.4213 l -7.6667,3.12467 c -54.0112,22.01304 -89.9815,53.4059 -100.9397,88.09463 -4.0474,12.81218 -4.6658,20.44494 -5.2875,65.2714 -0.6664,48.05007 -4.3559,78.17723 -14.7771,120.66667 -27.2782,111.21842 -92.5119,213.14825 -182.26603,284.79656 -78.28657,62.4941 -169.31139,100.3744 -270.39626,112.5266 -21.0627,2.5321 -78.21156,3.6889 -98.66666,1.9971 z M 34.700856,880.73926 v -55.08978 l 12.96113,-5.23811 c 47.5385,-19.21221 76.811434,-48.85268 85.875614,-86.95381 0.96096,-4.0394 1.58666,-26.36197 1.74612,-62.29519 0.26034,-58.66728 1.08194,-70.20586 7.54769,-105.99999 36.49804,-202.05173 189.4701,-366.3915 387.86943,-416.69293 46.45981,-11.77924 80.32951,-15.87265 131.33334,-15.87265 28.87065,0 43.56468,0.59925 58,2.36536 67.92224,8.31005 128.88969,26.92984 186.28678,56.89299 16.79213,8.76603 46.91055,26.86131 55.93944,33.60867 l 4.22624,3.1583 -47.03145,24.30769 -47.03144,24.30767 -13.86145,-7.10237 C 812.29879,246.43047 757.74742,230.68665 702.89291,225.2081 c -17.77676,-1.77544 -63.9407,-1.77544 -81.71746,0 -32.00217,3.19619 -66.38119,10.25764 -93.78062,19.26255 -143.84155,47.27392 -252.17072,163.55666 -288.70382,309.90059 -8.8678,35.52252 -12.39936,65.70728 -12.33834,105.4578 0.0395,25.72005 2.85868,64.28828 4.84438,66.27399 0.25906,0.25906 241.3034,-120.72891 535.65407,-268.86214 l 535.18298,-269.33317 0.348,56.21267 c 0.1914,30.91695 -0.1214,56.68214 -0.6953,57.25595 -1.1925,1.19256 -1265.021114,634.45269 -1266.208594,634.45269 -0.42754,0 -0.77735,-24.7904 -0.77735,-55.08977 z"
     id="path4495"
     inkscape:connector-curvature="0" />
</svg>
