<?xml version="1.0" encoding="UTF-8" standalone="no"?>
<svg
   xmlns:dc="http://purl.org/dc/elements/1.1/"
   xmlns:cc="http://creativecommons.org/ns#"
   xmlns:rdf="http://www.w3.org/1999/02/22-rdf-syntax-ns#"
   xmlns:svg="http://www.w3.org/2000/svg"
   xmlns="http://www.w3.org/2000/svg"
   xmlns:sodipodi="http://sodipodi.sourceforge.net/DTD/sodipodi-0.dtd"
   xmlns:inkscape="http://www.inkscape.org/namespaces/inkscape"
   id="svg"
   version="1.1"
   width="400"
   height="400"
   viewBox="0 0 400 400"
   sodipodi:docname="MonaCoin.svg"
   inkscape:version="0.92.1 r15371">
  <metadata
     id="metadata13">
    <rdf:RDF>
      <cc:Work
         rdf:about="">
        <dc:format>image/svg+xml</dc:format>
        <dc:type
           rdf:resource="http://purl.org/dc/dcmitype/StillImage" />
        <dc:title></dc:title>
      </cc:Work>
    </rdf:RDF>
  </metadata>
  <defs
     id="defs11" />
  <sodipodi:namedview
     pagecolor="#ffffff"
     bordercolor="#666666"
     borderopacity="1"
     objecttolerance="10"
     gridtolerance="10"
     guidetolerance="10"
     inkscape:pageopacity="0"
     inkscape:pageshadow="2"
     inkscape:window-width="1988"
     inkscape:window-height="1362"
     id="namedview9"
     showgrid="false"
     inkscape:zoom="0.59"
     inkscape:cx="471.18644"
     inkscape:cy="132.20339"
     inkscape:window-x="1162"
     inkscape:window-y="415"
     inkscape:window-maximized="0"
     inkscape:current-layer="svgg" />
  <g
     id="svgg">
    <path
       id="path0"
       d=""
       stroke="none"
       fill="#000000"
       fill-rule="evenodd" />
    <path
       id="path1"
       d=""
       stroke="none"
       fill="#555555"
       fill-rule="evenodd" />
    <path
       id="path2"
       d="M114.382 108.248 C 114.163 108.824,113.797 110.939,113.569 112.948 C 113.098 117.091,112.586 121.225,112.001 125.600 C 111.781 127.250,111.420 130.040,111.200 131.800 C 110.980 133.560,110.634 136.260,110.432 137.800 C 110.229 139.340,109.953 141.500,109.817 142.600 C 109.682 143.700,109.403 145.860,109.198 147.400 C 108.993 148.940,108.634 151.730,108.400 153.600 C 108.166 155.470,107.810 158.260,107.608 159.800 C 107.406 161.340,107.044 164.220,106.803 166.200 C 106.562 168.180,106.201 170.970,106.000 172.400 C 105.799 173.830,105.438 176.620,105.197 178.600 C 104.956 180.580,104.581 183.550,104.362 185.200 C 103.692 190.273,103.260 193.646,102.800 197.400 C 102.558 199.380,102.194 202.260,101.992 203.800 C 101.790 205.340,101.428 208.130,101.188 210.000 C 100.948 211.870,100.586 214.660,100.384 216.200 C 100.182 217.740,99.821 220.620,99.582 222.600 C 99.342 224.580,98.958 227.323,98.729 228.696 L 98.311 231.192 80.855 231.296 L 63.400 231.400 63.400 240.600 L 63.400 249.800 79.600 250.000 L 95.800 250.200 95.757 251.400 C 95.662 254.073,95.068 258.643,94.731 259.300 C 94.398 259.949,93.226 260.000,78.786 260.000 L 63.200 260.000 63.200 269.195 L 63.200 278.390 77.500 278.495 L 91.800 278.600 91.779 281.400 C 91.768 282.940,91.519 285.910,91.225 288.000 C 90.932 290.090,90.672 292.250,90.646 292.800 L 90.600 293.800 110.784 293.800 L 130.967 293.800 131.267 292.400 C 131.535 291.144,132.062 287.016,132.669 281.400 C 132.998 278.364,132.865 278.400,143.676 278.400 L 153.200 278.400 153.200 269.200 L 153.200 260.000 144.424 260.000 C 139.597 260.000,135.573 259.865,135.482 259.700 C 135.317 259.401,135.805 254.848,136.328 251.800 L 136.603 250.200 144.801 250.000 L 153.000 249.800 153.000 240.600 L 153.000 231.400 146.022 231.200 L 139.044 231.000 139.155 228.608 C 139.216 227.292,139.341 226.095,139.432 225.948 C 139.524 225.800,139.783 223.996,140.010 221.940 C 140.413 218.274,140.876 214.391,141.623 208.400 C 141.829 206.750,142.178 203.870,142.400 202.000 C 142.622 200.130,142.971 197.250,143.177 195.600 C 143.383 193.950,143.742 191.025,143.976 189.100 C 144.209 187.175,144.594 184.025,144.831 182.100 C 145.068 180.175,145.383 177.430,145.531 176.000 C 145.679 174.570,145.980 173.427,146.200 173.459 C 146.565 173.513,156.625 203.385,178.444 269.200 L 186.600 293.800 200.766 293.800 L 214.931 293.800 215.819 291.200 C 216.308 289.770,218.373 283.470,220.409 277.200 C 222.444 270.930,225.502 261.570,227.203 256.400 C 228.904 251.230,231.961 241.870,233.996 235.600 C 236.031 229.330,238.911 220.510,240.397 216.000 C 241.882 211.490,244.939 202.130,247.189 195.200 C 250.633 184.595,252.935 177.543,253.837 174.833 C 254.231 173.653,254.890 175.168,255.242 178.062 C 255.831 182.900,256.378 187.232,256.775 190.200 C 257.709 197.190,258.236 201.210,259.213 208.800 C 259.454 210.670,259.820 213.460,260.025 215.000 C 260.231 216.540,260.580 219.240,260.800 221.000 C 261.020 222.760,261.380 225.550,261.600 227.200 C 261.820 228.850,262.180 231.640,262.400 233.400 C 262.620 235.160,262.969 237.860,263.175 239.400 C 263.380 240.940,263.753 243.730,264.003 245.600 C 264.253 247.470,264.611 250.260,264.800 251.800 C 264.989 253.340,265.347 256.130,265.597 258.000 C 265.847 259.870,266.220 262.660,266.425 264.200 C 266.631 265.740,266.980 268.440,267.200 270.200 C 267.420 271.960,267.781 274.750,268.001 276.400 C 268.390 279.311,268.671 281.541,269.582 288.944 C 270.282 294.626,267.742 294.024,290.516 293.904 L 310.200 293.800 310.154 292.800 C 310.112 291.894,309.884 290.072,308.800 282.000 C 308.608 280.570,308.248 277.870,308.000 276.000 C 307.752 274.130,307.392 271.430,307.200 270.000 C 307.008 268.570,306.648 265.870,306.400 264.000 C 306.152 262.130,305.792 259.430,305.600 258.000 C 305.408 256.570,305.048 253.870,304.800 252.000 C 304.552 250.130,304.192 247.430,304.000 246.000 C 303.808 244.570,303.448 241.870,303.200 240.000 C 302.952 238.130,302.592 235.430,302.400 234.000 C 302.208 232.570,301.848 229.870,301.600 228.000 C 301.352 226.130,300.992 223.430,300.800 222.000 C 300.608 220.570,300.248 217.870,300.000 216.000 C 299.752 214.130,299.392 211.430,299.200 210.000 C 299.008 208.570,298.648 205.870,298.400 204.000 C 298.152 202.130,297.792 199.430,297.600 198.000 C 297.408 196.570,297.048 193.870,296.800 192.000 C 296.552 190.130,296.192 187.430,296.000 186.000 C 295.808 184.570,295.448 181.870,295.200 180.000 C 294.952 178.130,294.592 175.430,294.400 174.000 C 294.208 172.570,293.848 169.870,293.600 168.000 C 293.352 166.130,292.992 163.430,292.800 162.000 C 292.608 160.570,292.248 157.870,292.000 156.000 C 291.752 154.130,291.392 151.430,291.200 150.000 C 291.008 148.570,290.661 145.960,290.428 144.200 C 290.195 142.440,289.816 139.650,289.586 138.000 C 289.195 135.193,288.921 133.155,287.999 126.200 C 287.795 124.660,287.441 122.050,287.213 120.400 C 286.985 118.750,286.627 116.050,286.417 114.400 C 285.739 109.062,285.488 107.805,285.040 107.506 C 284.213 106.954,238.225 107.141,237.537 107.700 C 236.947 108.179,235.987 110.990,227.601 136.800 C 225.564 143.070,222.683 151.890,221.200 156.400 C 219.716 160.910,216.833 169.730,214.793 176.000 C 212.753 182.270,209.874 191.090,208.394 195.600 C 206.915 200.110,204.750 206.770,203.584 210.400 C 200.511 219.961,200.998 220.027,197.608 209.600 C 196.214 205.310,193.685 197.570,191.988 192.400 C 190.292 187.230,187.239 177.870,185.205 171.600 C 183.170 165.330,180.470 157.050,179.205 153.200 C 177.941 149.350,175.237 141.070,173.197 134.800 C 166.041 112.799,164.334 107.807,163.869 107.511 C 163.611 107.347,152.461 107.209,139.090 107.206 L 114.780 107.200 114.382 108.248 "
       stroke="none"
       fill="#ffffff"
       fill-rule="evenodd" />
    <path
       id="path3"
       d=""
       stroke="none"
       fill="#993333"
       fill-rule="evenodd" />
    <path
       d="m 163.869,107.511 c 0.465,0.296 2.172,5.288 9.328,27.289 2.04,6.27 4.744,14.55 6.008,18.4 1.265,3.85 3.965,12.13 6,18.4 2.034,6.27 5.087,15.63 6.783,20.8 1.697,5.17 4.226,12.91 5.62,17.2 3.39,10.427 2.903,10.361 5.976,0.8 1.166,-3.63 3.331,-10.29 4.81,-14.8 1.48,-4.51 4.359,-13.33 6.399,-19.6 2.04,-6.27 4.923,-15.09 6.407,-19.6 1.483,-4.51 4.364,-13.33 6.401,-19.6 8.386,-25.81 9.346,-28.621 9.936,-29.1 0.688,-0.559 46.676,-0.746 47.503,-0.194 0.448,0.299 0.699,1.556 1.377,6.894 0.21,1.65 0.568,4.35 0.796,6 0.228,1.65 0.582,4.26 0.786,5.8 0.922,6.955 1.196,8.993 1.587,11.8 0.23,1.65 0.609,4.44 0.842,6.2 0.233,1.76 0.58,4.37 0.772,5.8 0.192,1.43 0.552,4.13 0.8,6 0.248,1.87 0.608,4.57 0.8,6 0.192,1.43 0.552,4.13 0.8,6 0.248,1.87 0.608,4.57 0.8,6 0.192,1.43 0.552,4.13 0.8,6 0.248,1.87 0.608,4.57 0.8,6 0.192,1.43 0.552,4.13 0.8,6 0.248,1.87 0.608,4.57 0.8,6 0.192,1.43 0.552,4.13 0.8,6 0.248,1.87 0.608,4.57 0.8,6 0.192,1.43 0.552,4.13 0.8,6 0.248,1.87 0.608,4.57 0.8,6 0.192,1.43 0.552,4.13 0.8,6 0.248,1.87 0.608,4.57 0.8,6 0.192,1.43 0.552,4.13 0.8,6 0.248,1.87 0.608,4.57 0.8,6 0.192,1.43 0.552,4.13 0.8,6 0.248,1.87 0.608,4.57 0.8,6 0.192,1.43 0.552,4.13 0.8,6 0.248,1.87 0.608,4.57 0.8,6 0.192,1.43 0.552,4.13 0.8,6 0.248,1.87 0.608,4.57 0.8,6 1.084,8.072 1.312,9.894 1.354,10.8 l 0.046,1 -19.684,0.104 c -22.774,0.12 -20.234,0.722 -20.934,-4.96 -0.911,-7.403 -1.192,-9.633 -1.581,-12.544 -0.22,-1.65 -0.581,-4.44 -0.801,-6.2 -0.22,-1.76 -0.569,-4.46 -0.775,-6 -0.205,-1.54 -0.578,-4.33 -0.828,-6.2 -0.25,-1.87 -0.608,-4.66 -0.797,-6.2 -0.189,-1.54 -0.547,-4.33 -0.797,-6.2 -0.25,-1.87 -0.623,-4.66 -0.828,-6.2 -0.206,-1.54 -0.555,-4.24 -0.775,-6 -0.22,-1.76 -0.58,-4.55 -0.8,-6.2 -0.22,-1.65 -0.58,-4.44 -0.8,-6.2 -0.22,-1.76 -0.569,-4.46 -0.775,-6 -0.205,-1.54 -0.571,-4.33 -0.812,-6.2 -0.977,-7.59 -1.504,-11.61 -2.438,-18.6 -0.397,-2.968 -0.944,-7.3 -1.533,-12.138 -0.352,-2.894 -1.011,-4.409 -1.405,-3.229 -0.902,2.71 -3.204,9.762 -6.648,20.367 -2.25,6.93 -5.307,16.29 -6.792,20.8 -1.486,4.51 -4.366,13.33 -6.401,19.6 -2.035,6.27 -5.092,15.63 -6.793,20.8 -1.701,5.17 -4.759,14.53 -6.794,20.8 -2.036,6.27 -4.101,12.57 -4.59,14 l -0.888,2.6 H 200.766 186.6 l -8.156,-24.6 c -21.819,-65.815 -31.879,-95.687 -32.244,-95.741 -0.22,-0.032 -0.521,1.111 -0.669,2.541 -0.148,1.43 -0.463,4.175 -0.7,6.1 -0.237,1.925 -0.622,5.075 -0.855,7 -0.234,1.925 -0.593,4.85 -0.799,6.5 -0.206,1.65 -0.555,4.53 -0.777,6.4 -0.222,1.87 -0.571,4.75 -0.777,6.4 -0.747,5.991 -1.21,9.874 -1.613,13.54 -0.227,2.056 -0.486,3.86 -0.578,4.008 -0.091,0.147 -0.216,1.344 -0.277,2.66 l -0.111,2.392 6.978,0.2 6.978,0.2 v 9.2 9.2 l -8.199,0.2 -8.198,0.2 -0.275,1.6 c -0.523,3.048 -1.011,7.601 -0.846,7.9 0.091,0.165 4.115,0.3 8.942,0.3 h 8.776 v 9.2 9.2 h -9.524 c -10.811,0 -10.678,-0.036 -11.007,3 -0.607,5.616 -1.134,9.744 -1.402,11 l -0.3,1.4 H 110.784 90.6 l 0.046,-1 c 0.026,-0.55 0.286,-2.71 0.579,-4.8 0.294,-2.09 0.543,-5.06 0.554,-6.6 L 91.8,278.6 77.5,278.495 63.2,278.39 V 269.195 260 h 15.586 c 14.44,0 15.612,-0.051 15.945,-0.7 0.337,-0.657 0.931,-5.227 1.026,-7.9 L 95.8,250.2 79.6,250 63.4,249.8 v -9.2 -9.2 l 17.455,-0.104 17.456,-0.104 0.418,-2.496 c 0.229,-1.373 0.613,-4.116 0.853,-6.096 0.239,-1.98 0.6,-4.86 0.802,-6.4 0.202,-1.54 0.564,-4.33 0.804,-6.2 0.24,-1.87 0.602,-4.66 0.804,-6.2 0.202,-1.54 0.566,-4.42 0.808,-6.4 0.46,-3.754 0.892,-7.127 1.562,-12.2 0.219,-1.65 0.594,-4.62 0.835,-6.6 0.241,-1.98 0.602,-4.77 0.803,-6.2 0.201,-1.43 0.562,-4.22 0.803,-6.2 0.241,-1.98 0.603,-4.86 0.805,-6.4 0.202,-1.54 0.558,-4.33 0.792,-6.2 0.234,-1.87 0.593,-4.66 0.798,-6.2 0.205,-1.54 0.484,-3.7 0.619,-4.8 0.136,-1.1 0.412,-3.26 0.615,-4.8 0.202,-1.54 0.548,-4.24 0.768,-6 0.22,-1.76 0.581,-4.55 0.801,-6.2 0.585,-4.375 1.097,-8.509 1.568,-12.652 0.228,-2.009 0.594,-4.124 0.813,-4.7 l 0.398,-1.048 24.31,0.006 c 13.371,0.003 24.521,0.141 24.779,0.305"
       id="path4" />
  </g>
</svg>
