<?xml version="1.0" encoding="UTF-8" standalone="no"?>
<!-- Created with Inkscape (http://www.inkscape.org/) -->

<svg
   xmlns:dc="http://purl.org/dc/elements/1.1/"
   xmlns:cc="http://creativecommons.org/ns#"
   xmlns:rdf="http://www.w3.org/1999/02/22-rdf-syntax-ns#"
   xmlns:svg="http://www.w3.org/2000/svg"
   xmlns="http://www.w3.org/2000/svg"
   xmlns:sodipodi="http://sodipodi.sourceforge.net/DTD/sodipodi-0.dtd"
   xmlns:inkscape="http://www.inkscape.org/namespaces/inkscape"
   version="1.1"
   id="svg4485"
   width="520"
   height="520"
   viewBox="0 0 520 520"
   sodipodi:docname="xrp-symbol-black-git.svg"
   inkscape:version="0.92.1 r15371">
  <metadata
     id="metadata4491">
    <rdf:RDF>
      <cc:Work
         rdf:about="">
        <dc:format>image/svg+xml</dc:format>
        <dc:type
           rdf:resource="http://purl.org/dc/dcmitype/StillImage" />
        <dc:title></dc:title>
      </cc:Work>
    </rdf:RDF>
  </metadata>
  <defs
     id="defs4489" />
  <sodipodi:namedview
     pagecolor="#ffffff"
     bordercolor="#666666"
     borderopacity="1"
     objecttolerance="10"
     gridtolerance="10"
     guidetolerance="10"
     inkscape:pageopacity="0"
     inkscape:pageshadow="2"
     inkscape:window-width="1730"
     inkscape:window-height="1270"
     id="namedview4487"
     showgrid="false"
     inkscape:zoom="1.8403846"
     inkscape:cx="151.32706"
     inkscape:cy="216.53083"
     inkscape:window-x="1372"
     inkscape:window-y="381"
     inkscape:window-maximized="0"
     inkscape:current-layer="svg4485" />
  <path
     id="path4495"
     style="fill:#000000;stroke-width:1.33333337"
     d="m 206.50993,282.299 c -29.91588,-5.41887 -53.23973,-26.38576 -73.405,-47.73643 -34.729052,-33.93093 -69.151379,-68.1744 -103.928335,-102.05643 19.508808,-0.0271 39.017615,-0.0542 58.526423,-0.0812 33.764842,32.80616 65.868012,67.41505 101.167792,98.58397 28.38976,20.95525 71.51565,15.62484 94.43907,-11.05722 30.15447,-28.56653 59.05699,-58.41093 88.67362,-87.52675 19.47323,0 38.94645,0 58.41968,0 -45.23857,43.98871 -89.00409,89.6145 -135.87027,131.85393 -25.17383,18.06313 -57.87011,23.24273 -88.02298,18.02017 z M 91.860778,403.32998 c 26.548432,-24.91558 50.365222,-53.19943 79.978462,-74.5714 43.36796,-26.37452 104.71748,-19.10952 139.08471,18.88854 40.44436,38.74782 79.77917,78.62776 119.58598,118.02467 -20.1795,-2.9511 -45.20151,5.96708 -62.19195,-4.80174 -34.05768,-32.88896 -66.35371,-67.87001 -102.75802,-98.15939 -20.03002,-10.97657 -46.68933,-11.9495 -67.13217,-1.76997 -24.96943,15.28343 -43.25857,38.84463 -64.83705,58.24151 -15.69767,15.47397 -31.38505,30.95837 -47.080812,46.43427 -19.111111,0.0184 -38.222222,0.0368 -57.333333,0.0552 20.894745,-20.78055 41.789334,-41.56125 62.684183,-62.34169 z" />
</svg>
